# xmcd
#
# Track frame offsets: 
#        150
#        15930
#        29614
#        52614
#        66307
#        91543
#        116006
#        131475
#        158275
#        173440
#        200629
#        219532
#        238658
#        256997
#        270300
#        283515
#        298559
#
# Disc length: 4779 seconds
#
# Revision: 0
# Processed by: cddbd v1.5.2PL0 Copyright (c) Steve Scherf et al.
# Submitted via: ExactAudioCopy v0.95a5
#
DISCID=dc12a911
DTITLE=Various Artist - Akella Presents - Rockin' Blues - vol.18  CD1
DYEAR=2010
DGENRE=Blues
TTITLE0=PAT RAMSEY - Allergic to Work
TTITLE1=SCOTT KEETON - 100 Mile Blues
TTITLE2=DAVID DENNY - Without You
TTITLE3=SY KLOPP'S Blues Band - Steppin' Stone
TTITLE4=PAT RAMSEY - King of Fools
TTITLE5=BACKTRACK BLUES BAND - Boogie Snack
TTITLE6=STAN RUFFO - Take Away My Breath
TTITLE7=STORM WARNING - Whisky Blues
TTITLE8=SLOLEAK - I Cry For You
TTITLE9=SMOKEHOUSE - Cadillac in the Swamp
TTITLE10=Dr. FEELGOOD - Sweet Louise
TTITLE11=MASON CASEY - Living In a Dream
TTITLE12=WORKING BLUES BAND - Who's Been Talking
TTITLE13=DOUG Little Brother JONES - The Last Time
TTITLE14=The PIRATES - Drinking Wine Spo-Dee-O-Dee
TTITLE15=BUDDY FLETT - Threed House On the Left
TTITLE16=BLINDSIDE BLUES BAND - I'm Trying
EXTD=
EXTT0=
EXTT1=
EXTT2=
EXTT3=
EXTT4=
EXTT5=
EXTT6=
EXTT7=
EXTT8=
EXTT9=
EXTT10=
EXTT11=
EXTT12=
EXTT13=
EXTT14=
EXTT15=
EXTT16=
PLAYORDER=
